{
    "asset" : {
        "generator" : "Khronos glTF Blender I/O v1.0.4",
        "version" : "2.0"
    },
    "scene" : 0,
    "scenes" : [
        {
            "extras" : {
                "glTF2ExportSettings" : {
                    "export_cameras" : 1,
                    "export_extras" : 1,
                    "export_format" : "GLTF_EMBEDDED",
                    "export_lights" : 0
                }
            },
            "name" : "Scene",
            "nodes" : [
                1,
                4,
                5,
                6
            ]
        }
    ],
    "nodes" : [
        {
            "name" : "Light.001",
            "rotation" : [
                -0.7071068286895752,
                0,
                0,
                0.7071068286895752
            ]
        },
        {
            "children" : [
                0
            ],
            "name" : "Light",
            "rotation" : [
                0.779710590839386,
                -0.24513894319534302,
                0.4408104717731476,
                0.37100473046302795
            ],
            "translation" : [
                -3.7609734535217285,
                5.903861999511719,
                1.8659565448760986
            ]
        },
        {
            "camera" : 0,
            "name" : "Camera.001_Orientation",
            "rotation" : [
                -0.7071067690849304,
                0,
                0,
                0.7071067690849304
            ]
        },
        {
            "children" : [
                2
            ],
            "name" : "Camera.001",
            "rotation" : [
                -0.7071068286895752,
                0,
                0,
                0.7071067094802856
            ]
        },
        {
            "children" : [
                3
            ],
            "name" : "Camera",
            "rotation" : [
                0.8937963247299194,
                0.09062855690717697,
                -0.3857799172401428,
                0.20997287333011627
            ],
            "translation" : [
                7.358891487121582,
                4.958308696746826,
                6.925792217254639
            ]
        },
        {
            "mesh" : 0,
            "name" : "Suzanne",
            "rotation" : [
                0.7071068286895752,
                0,
                0,
                0.7071067094802856
            ]
        },
        {
            "name" : "Area",
            "rotation" : [
                0.3097171485424042,
                0.36307790875434875,
                -0.1293732225894928,
                0.8692020773887634
            ],
            "translation" : [
                6.269051551818848,
                4.203160285949707,
                5.795607566833496
            ]
        }
    ],
    "cameras" : [
        {
            "name" : "Camera",
            "perspective" : {
                "yfov" : 0.39959648408210363,
                "zfar" : 1000,
                "znear" : 0.10000000149011612
            },
            "type" : "perspective"
        }
    ],
    "materials" : [
        {
            "doubleSided" : true,
            "name" : "Ape",
            "pbrMetallicRoughness" : {
                "baseColorFactor" : [
                    0.21556814014911652,
                    0.3799789547920227,
                    0.5382304191589355,
                    1
                ],
                "metallicFactor" : 0,
                "roughnessFactor" : 0.5
            }
        }
    ],
    "meshes" : [
        {
            "name" : "Suzanne",
            "primitives" : [
                {
                    "attributes" : {
                        "POSITION" : 0,
                        "NORMAL" : 1,
                        "TEXCOORD_0" : 2
                    },
                    "indices" : 3,
                    "material" : 0
                }
            ]
        }
    ],
    "accessors" : [
        {
            "bufferView" : 0,
            "componentType" : 5126,
            "count" : 1986,
            "max" : [
                1.3671875,
                0.8515625,
                0.984375
            ],
            "min" : [
                -1.3671875,
                -0.8515625,
                -0.984375
            ],
            "type" : "VEC3"
        },
        {
            "bufferView" : 1,
            "componentType" : 5126,
            "count" : 1986,
            "type" : "VEC3"
        },
        {
            "bufferView" : 2,
            "componentType" : 5126,
            "count" : 1986,
            "type" : "VEC2"
        },
        {
            "bufferView" : 3,
            "componentType" : 5123,
            "count" : 2904,
            "type" : "SCALAR"
        }
    ],
    "bufferViews" : [
        {
            "buffer" : 0,
            "byteLength" : 23832,
            "byteOffset" : 0
        },
        {
            "buffer" : 0,
            "byteLength" : 23832,
            "byteOffset" : 23832
        },
        {
            "buffer" : 0,
            "byteLength" : 15888,
            "byteOffset" : 47664
        },
        {
            "buffer" : 0,
            "byteLength" : 5808,
            "byteOffset" : 63552
        }
    ],
    "buffers" : [
        {
            "byteLength" : 69360,
            "uri" : "data:application/octet-stream;base64,"
        }
    ]
}
